<?xml version="1.0" encoding="utf-8"?>
<!-- Generator: Adobe Illustrator 23.0.3, SVG Export Plug-In . SVG Version: 6.00 Build 0)  -->
<svg version="1.1" xmlns="http://www.w3.org/2000/svg" xmlns:xlink="http://www.w3.org/1999/xlink" x="0px" y="0px"
	 viewBox="0 0 1488 1000" style="enable-background:new 0 0 1488 1000;" xml:space="preserve">
<style type="text/css">
	.st0{fill:url(#SVGID_1_);}
	.st1{enable-background:new    ;}
	.st2{clip-path:url(#SVGID_3_);fill:url(#SVGID_4_);}
	.st3{fill:#0EB7F6;}
	.st4{fill:#3788B6;}
	.st5{fill:#206482;}
	.st6{fill:#6A6A6A;}
	.st7{fill:#989898;}
	.st8{clip-path:url(#SVGID_6_);enable-background:new    ;}
	.st9{fill:#666666;}
	.st10{fill:#6E6E6E;}
	.st11{fill:#727272;}
	.st12{fill:#767676;}
	.st13{fill:#7A7A7A;}
	.st14{fill:#7E7E7E;}
	.st15{fill:#828282;}
	.st16{fill:#868686;}
	.st17{fill:#8A8A8A;}
	.st18{fill:#8E8E8E;}
	.st19{fill:#AAAAAA;}
	.st20{opacity:0.75;}
	.st21{fill:#FFFFFF;}
	.st22{opacity:0.75;fill:#FFFFFF;}
	.st23{opacity:0.2;}
	.st24{fill:#887253;}
	.st25{fill:#BB9B72;}
	.st26{fill:#AD916A;}
	.st27{fill:#957B5B;}
	.st28{opacity:0.47;}
	.st29{fill:#948B81;}
	.st30{fill-rule:evenodd;clip-rule:evenodd;fill:#FFFFFF;}
	.st31{fill:#1471A2;}
	.st32{fill:#FCC03F;}
	.st33{fill:#64AB57;}
	.st34{opacity:0.2;fill-rule:evenodd;clip-rule:evenodd;}
	.st35{clip-path:url(#XMLID_9_);enable-background:new    ;}
	.st36{fill:#9C6779;}
	.st37{fill:#986476;}
	.st38{fill:#956173;}
	.st39{fill:#915F70;}
	.st40{fill:#C0453F;}
	.st41{fill:#F7F6F5;}
	.st42{fill:#DBDAD9;}
	.st43{fill:#A5A7A9;}
	.st44{fill:#949699;}
	.st45{fill:#C8CACB;}
	.st46{fill:#E8E8E9;}
	.st47{fill:#DDDFE0;}
	.st48{fill:#BF1924;}
	.st49{fill:#AC141D;}
	.st50{fill:#C5C7C9;}
	.st51{fill:#FCBF31;}
	.st52{fill:#FFD82E;}
	.st53{fill:#D9DBDC;}
	.st54{fill:#C4C5C7;}
	.st55{fill:#CE3A30;}
	.st56{fill:#737477;}
	.st57{fill:#8C0810;}
	.st58{fill:#D94F3D;}
</style>
<g id="Calque_2">
	<linearGradient id="SVGID_1_" gradientUnits="userSpaceOnUse" x1="341.4937" y1="-197.1615" x2="1146.5063" y2="1197.1615">
		<stop  offset="0.103" style="stop-color:#82E6C5"/>
		<stop  offset="0.9227" style="stop-color:#3AA3BB"/>
	</linearGradient>
	<rect class="st0" width="1488" height="1000"/>
</g>
<g id="Calque_1">
	<g>
		<g class="st1">
			<g class="st1">
				<defs>
					<path id="SVGID_2_" class="st1" d="M819.43,304.45l-0.1,20.64c0.01-2.32-2.69-4.64-8.11-6.4c-10.75-3.51-28.14-3.51-38.83,0
						c-5.31,1.74-7.96,4.03-7.97,6.31l0.1-20.64c0.01-2.29,2.67-4.57,7.97-6.31c10.69-3.51,28.08-3.51,38.83,0
						C816.73,299.82,819.44,302.14,819.43,304.45z"/>
				</defs>
				<clipPath id="SVGID_3_">
					<use xlink:href="#SVGID_2_"  style="overflow:visible;"/>
				</clipPath>
				<linearGradient id="SVGID_4_" gradientUnits="userSpaceOnUse" x1="764.4125" y1="310.2539" x2="819.4264" y2="310.2539">
					<stop  offset="0" style="stop-color:#206482"/>
					<stop  offset="1" style="stop-color:#3788B6"/>
				</linearGradient>
				<path class="st2" d="M811.32,298.05c-1.24-0.4-2.56-0.76-3.96-1.07c-1.07-0.24-2.19-0.45-3.33-0.64
					c-0.94-0.15-1.89-0.28-2.86-0.4c-0.9-0.1-1.81-0.19-2.72-0.27c-0.88-0.07-1.77-0.13-2.67-0.17c-0.9-0.04-1.8-0.07-2.71-0.08
					c-0.94-0.01-1.88-0.01-2.81,0.01c-1.02,0.02-2.04,0.06-3.05,0.11c-1.18,0.07-2.35,0.16-3.5,0.28c-1.79,0.18-3.53,0.43-5.2,0.73
					c-2.16,0.4-4.18,0.89-6.01,1.5c-0.11,0.04-0.22,0.07-0.33,0.11c-1.33,0.45-2.49,0.94-3.47,1.45c-0.64,0.33-1.21,0.68-1.7,1.04
					c-0.42,0.3-0.79,0.61-1.11,0.93c-0.29,0.29-0.53,0.59-0.73,0.88c-0.19,0.29-0.34,0.58-0.44,0.88c-0.1,0.3-0.17,0.59-0.18,0.89
					c0,0.05,0,0.09,0,0.14l-0.1,20.64c0-0.05,0-0.09,0-0.14c0.02-0.3,0.08-0.6,0.18-0.89c0.1-0.29,0.25-0.59,0.44-0.88
					c0.2-0.3,0.44-0.59,0.73-0.88c0.31-0.31,0.68-0.62,1.11-0.93c0.49-0.35,1.06-0.7,1.7-1.04c0.98-0.51,2.14-1,3.47-1.45
					c0.11-0.04,0.22-0.07,0.33-0.11c1.83-0.6,3.86-1.1,6.01-1.5c1.67-0.31,3.41-0.55,5.2-0.73c1.15-0.12,2.32-0.21,3.5-0.28
					c1.01-0.06,2.03-0.1,3.05-0.11c0.94-0.02,1.88-0.02,2.81-0.01c0.9,0.01,1.81,0.04,2.71,0.08c0.9,0.04,1.79,0.1,2.67,0.17
					c0.92,0.07,1.83,0.16,2.72,0.27c0.97,0.11,1.93,0.25,2.86,0.4c1.15,0.18,2.26,0.4,3.33,0.64c1.39,0.31,2.72,0.67,3.96,1.07
					c5.41,1.77,8.12,4.09,8.11,6.4l0.1-20.64C819.44,302.14,816.73,299.82,811.32,298.05z"/>
			</g>
			<g>
				<path class="st3" d="M755.83,236.64l165.18,95.37l-92.89,53.98l-165.18-95.37L755.83,236.64z M772.62,322.56
					c10.76,6.21,28.15,6.21,38.83,0c10.69-6.21,10.63-16.28-0.13-22.49c-10.75-6.21-28.14-6.21-38.83,0
					C761.81,306.28,761.87,316.36,772.62,322.56"/>
			</g>
			<g>
				<polygon class="st4" points="921.01,332.01 920.91,368.51 828.02,422.49 828.12,385.99 				"/>
			</g>
			<g>
				<polygon class="st5" points="828.12,385.99 828.02,422.49 662.84,327.13 662.94,290.63 				"/>
			</g>
		</g>
	</g>
	<g>
		<g class="st1">
			<g>
				<polygon class="st3" points="795.09,365.46 323.8,639.35 230.62,585.55 701.91,311.66 				"/>
			</g>
			<g>
				<polygon class="st4" points="795.09,365.46 794.99,401.96 323.7,675.85 323.8,639.35 				"/>
			</g>
			<g>
				<polygon class="st6" points="323.8,639.35 323.7,675.85 230.52,622.05 230.62,585.55 				"/>
			</g>
		</g>
	</g>
	<g>
		<g class="st1">
			<g>
				<polygon class="st3" points="556.96,704.44 464.38,758.24 198.61,604.79 291.18,551 				"/>
			</g>
			<g>
				<polygon class="st7" points="556.96,704.44 556.86,740.94 464.28,794.74 464.38,758.24 				"/>
			</g>
			<g>
				<polygon class="st5" points="464.38,758.24 464.28,794.74 198.5,641.3 198.61,604.79 				"/>
			</g>
		</g>
	</g>
	<g>
		<g class="st1">
			<g>
				<polygon class="st3" points="1024.95,535.62 553.67,809.5 460.49,755.7 931.77,481.82 				"/>
			</g>
			<g>
				<polygon class="st4" points="1024.95,535.62 1024.85,572.12 553.57,846 553.67,809.5 				"/>
			</g>
			<g>
				<polygon class="st5" points="553.67,809.5 553.57,846 460.39,792.2 460.49,755.7 				"/>
			</g>
		</g>
	</g>
	<g>
		<g class="st1">
			<g>
				<polygon class="st3" points="1205.53,639.97 1044.58,733.5 863.52,628.97 1024.47,535.43 				"/>
			</g>
			<g>
				<polygon class="st4" points="1205.53,639.97 1205.43,676.47 1044.48,770 1044.58,733.5 				"/>
			</g>
			<g>
				<polygon class="st5" points="1044.58,733.5 1044.48,770 863.41,665.47 863.52,628.97 				"/>
			</g>
		</g>
	</g>
	<g>
		<g class="st1">
			<g>
				<polygon class="st3" points="1272.87,732.65 1198.17,776.06 1082.76,709.42 1157.45,666.02 				"/>
			</g>
			<g>
				<polygon class="st4" points="1272.87,732.65 1272.76,769.15 1198.07,812.56 1198.17,776.06 				"/>
			</g>
			<g>
				<polygon class="st5" points="1198.17,776.06 1198.07,812.56 1082.66,745.93 1082.76,709.42 				"/>
			</g>
		</g>
	</g>
	<g>
		<g>
			<g class="st1">
				<g class="st1">
					<defs>
						<path id="SVGID_5_" class="st1" d="M1943.43,329.83l-0.07,24.45c0.01-2.74-1.8-5.49-5.43-7.59c-7.21-4.16-18.85-4.16-26.02,0
							c-3.56,2.07-5.34,4.77-5.35,7.48l0.07-24.45c0.01-2.71,1.79-5.41,5.35-7.48c7.16-4.16,18.81-4.16,26.02,0
							C1941.63,324.33,1943.44,327.08,1943.43,329.83z"/>
					</defs>
					<clipPath id="SVGID_6_">
						<use xlink:href="#SVGID_5_"  style="overflow:visible;"/>
					</clipPath>
					<g class="st8">
						<path class="st9" d="M1943.43,329.83l-0.07,24.45c0.01-2.74-1.8-5.49-5.43-7.59c-0.83-0.48-1.72-0.9-2.65-1.27l0.07-24.45
							c0.93,0.37,1.82,0.79,2.65,1.27C1941.63,324.33,1943.44,327.08,1943.43,329.83"/>
						<path class="st6" d="M1935.35,320.97l-0.07,24.45c-0.72-0.28-1.47-0.54-2.23-0.75l0.07-24.45
							C1933.88,320.43,1934.63,320.68,1935.35,320.97"/>
						<path class="st10" d="M1933.11,320.21l-0.07,24.45c-0.63-0.18-1.27-0.34-1.92-0.47l0.07-24.45
							C1931.85,319.88,1932.49,320.03,1933.11,320.21"/>
						<path class="st11" d="M1931.19,319.74l-0.07,24.45c-0.6-0.12-1.21-0.23-1.82-0.32l0.07-24.45
							C1929.99,319.51,1930.59,319.62,1931.19,319.74"/>
						<path class="st12" d="M1929.37,319.43l-0.07,24.45c-0.59-0.08-1.19-0.15-1.79-0.2l0.07-24.45
							C1928.18,319.27,1928.78,319.34,1929.37,319.43"/>
						<path class="st13" d="M1927.58,319.23l-0.07,24.45c-0.6-0.05-1.21-0.08-1.81-0.1l0.07-24.45
							C1926.38,319.14,1926.98,319.18,1927.58,319.23"/>
						<path class="st14" d="M1925.77,319.13l-0.07,24.45c-0.63-0.02-1.26-0.01-1.88,0.01l0.07-24.45
							C1924.51,319.12,1925.14,319.11,1925.77,319.13"/>
						<path class="st15" d="M1923.89,319.14l-0.07,24.45c-0.68,0.02-1.36,0.07-2.04,0.14l0.07-24.45
							C1922.52,319.21,1923.2,319.16,1923.89,319.14"/>
						<path class="st16" d="M1921.85,319.27l-0.07,24.45c-0.79,0.08-1.58,0.19-2.35,0.33l0.07-24.45
							C1920.27,319.46,1921.06,319.35,1921.85,319.27"/>
						<path class="st17" d="M1919.5,319.6l-0.07,24.45c-1.2,0.22-2.37,0.51-3.48,0.87l0.07-24.45
							C1917.13,320.1,1918.3,319.82,1919.5,319.6"/>
						<path class="st18" d="M1916.02,320.47l-0.07,24.45c-1.45,0.47-2.8,1.06-4.03,1.77c-0.08,0.04-0.15,0.09-0.22,0.13l0.07-24.45
							c0.07-0.04,0.15-0.09,0.22-0.13C1913.21,321.53,1914.57,320.94,1916.02,320.47"/>
						<path class="st17" d="M1911.76,322.37l-0.07,24.45c-0.89,0.54-1.67,1.12-2.33,1.73l0.07-24.45
							C1910.09,323.49,1910.87,322.91,1911.76,322.37"/>
						<path class="st16" d="M1909.43,324.1l-0.07,24.45c-0.43,0.4-0.81,0.81-1.14,1.23l0.07-24.45
							C1908.62,324.9,1909,324.49,1909.43,324.1"/>
						<path class="st15" d="M1908.29,325.32l-0.07,24.45c-0.28,0.36-0.53,0.73-0.74,1.1l0.07-24.45
							C1907.76,326.05,1908.01,325.68,1908.29,325.32"/>
						<path class="st14" d="M1907.55,326.42l-0.07,24.45c-0.19,0.34-0.36,0.69-0.49,1.05l0.07-24.45
							C1907.19,327.12,1907.36,326.77,1907.55,326.42"/>
						<path class="st13" d="M1907.06,327.47l-0.07,24.45c-0.13,0.34-0.23,0.69-0.3,1.04l0.07-24.45
							C1906.83,328.16,1906.93,327.81,1907.06,327.47"/>
						<path class="st12" d="M1906.76,328.51l-0.07,24.45c-0.07,0.35-0.11,0.7-0.12,1.06l0.07-24.45
							C1906.65,329.21,1906.69,328.86,1906.76,328.51"/>
						<path class="st11" d="M1906.64,329.56l-0.07,24.45c0,0.05,0,0.11,0,0.16l0.07-24.45
							C1906.64,329.67,1906.64,329.61,1906.64,329.56"/>
					</g>
				</g>
				<g>
					<path class="st19" d="M1900.82,279.74l110.67,63.89l-62.24,36.17l-110.67-63.89L1900.82,279.74z M1912.07,337.31
						c7.21,4.16,18.85,4.16,26.02,0c7.16-4.16,7.12-10.91-0.08-15.07c-7.21-4.16-18.85-4.16-26.02,0
						C1904.82,326.4,1904.86,333.15,1912.07,337.31"/>
				</g>
				<g>
					<polygon class="st7" points="2011.49,343.63 2011.42,368.09 1949.18,404.26 1949.25,379.8 					"/>
				</g>
				<g>
					<polygon class="st6" points="1949.25,379.8 1949.18,404.26 1838.51,340.37 1838.58,315.91 					"/>
				</g>
			</g>
		</g>
	</g>
	<g>
		<g>
			<g class="st1">
				<g>
					<polygon class="st19" points="1927.13,366.05 1611.38,549.54 1548.95,513.5 1864.7,330 					"/>
				</g>
				<g>
					<polygon class="st7" points="1927.13,366.05 1927.06,390.5 1611.31,573.99 1611.38,549.54 					"/>
				</g>
				<g>
					<polygon class="st6" points="1611.38,549.54 1611.31,573.99 1548.88,537.95 1548.95,513.5 					"/>
				</g>
			</g>
		</g>
	</g>
	<g>
		<g>
			<g class="st1">
				<g>
					<polygon class="st19" points="1767.58,593.15 1705.56,629.19 1527.5,526.39 1589.51,490.35 					"/>
				</g>
				<g>
					<polygon class="st7" points="1767.58,593.15 1767.51,617.61 1705.49,653.65 1705.56,629.19 					"/>
				</g>
				<g>
					<polygon class="st6" points="1705.56,629.19 1705.49,653.65 1527.43,550.85 1527.5,526.39 					"/>
				</g>
			</g>
		</g>
	</g>
	<g>
		<g>
			<g class="st1">
				<g>
					<polygon class="st19" points="2081.12,480.05 1765.37,663.54 1702.95,627.5 2018.69,444 					"/>
				</g>
				<g>
					<polygon class="st7" points="2081.12,480.05 2081.05,504.5 1765.3,688 1765.37,663.54 					"/>
				</g>
				<g>
					<polygon class="st6" points="1765.37,663.54 1765.3,688 1702.88,651.95 1702.95,627.5 					"/>
				</g>
			</g>
		</g>
	</g>
	<g>
		<g>
			<g class="st1">
				<g>
					<polygon class="st19" points="2202.1,549.96 2094.27,612.63 1972.96,542.59 2080.8,479.92 					"/>
				</g>
				<g>
					<polygon class="st7" points="2202.1,549.96 2202.03,574.42 2094.2,637.08 2094.27,612.63 					"/>
				</g>
				<g>
					<polygon class="st6" points="2094.27,612.63 2094.2,637.08 1972.89,567.05 1972.96,542.59 					"/>
				</g>
			</g>
		</g>
	</g>
	<g>
		<g>
			<g class="st1">
				<g>
					<polygon class="st19" points="2247.21,612.06 2197.18,641.13 2119.85,596.49 2169.89,567.41 					"/>
				</g>
				<g>
					<polygon class="st7" points="2247.21,612.06 2247.14,636.51 2197.11,665.59 2197.18,641.13 					"/>
				</g>
				<g>
					<polygon class="st6" points="2197.18,641.13 2197.11,665.59 2119.78,620.94 2119.85,596.49 					"/>
				</g>
			</g>
		</g>
	</g>
	<g class="st20">
		<path class="st21" d="M929.62,523.84l12.63,7.29c1.5,0.87,1.5,2.27,0,3.14l0,0c-1.5,0.87-3.93,0.87-5.43,0l-4.32-2.49
			c-1.5-0.87-3.93-0.87-5.43,0l0,0c-1.5,0.87-1.5,2.27,0,3.14l4.32,2.49c1.5,0.87,1.5,2.27,0,3.14l0,0c-1.5,0.87-3.93,0.87-5.43,0
			l-13.21-7.63c-1.5-0.87-3.93-0.87-5.43,0h0c-1.5,0.87-1.5,2.27,0,3.14l42.68,24.64c1.5,0.87,3.93,0.87,5.43,0l0,0
			c1.5-0.87,1.5-2.27,0-3.14l-4.53-2.61c-1.5-0.87-1.5-2.27,0-3.14h0c1.5-0.87,3.93-0.87,5.43,0l10.28,5.94
			c1.5,0.87,3.93,0.87,5.43,0h0c1.5-0.87,1.5-2.27,0-3.14l-2.61-1.51c-1.5-0.87-1.5-2.27,0-3.14l0,0c1.5-0.87,3.93-0.87,5.43,0
			l9.91,5.72c1.5,0.87,3.93,0.87,5.43,0h0c1.5-0.87,1.5-2.27,0-3.14l-55.14-31.84c-1.5-0.87-3.93-0.87-5.43,0h0
			C928.12,521.56,928.12,522.97,929.62,523.84z M958.37,543.57L958.37,543.57c-1.5,0.87-3.93,0.87-5.43,0l-3.65-2.11
			c-1.5-0.87-1.5-2.27,0-3.14h0c1.5-0.87,3.93-0.87,5.43,0l3.65,2.11C959.87,541.3,959.87,542.7,958.37,543.57z"/>
		<path class="st21" d="M992.86,557.21L992.86,557.21c-1.5,0.87-1.5,2.27,0,3.14l2.45,1.42c1.5,0.87,3.93,0.87,5.43,0l0,0
			c1.5-0.87,1.5-2.27,0-3.14l-2.45-1.42C996.8,556.35,994.37,556.35,992.86,557.21z"/>
	</g>
	<g class="st20">
		<path class="st21" d="M477.46,705.39l13.78,7.96c1.64,0.95,1.64,2.48,0,3.42l0,0c-1.64,0.95-4.29,0.95-5.93,0l-4.71-2.72
			c-1.64-0.95-4.29-0.95-5.93,0l0,0c-1.64,0.95-1.64,2.48,0,3.42l4.71,2.72c1.64,0.95,1.64,2.48,0,3.42l0,0
			c-1.64,0.95-4.29,0.95-5.93,0l-14.42-8.33c-1.64-0.95-4.29-0.95-5.93,0h0c-1.64,0.95-1.64,2.48,0,3.42l46.57,26.89
			c1.64,0.95,4.29,0.95,5.93,0l0,0c1.64-0.95,1.64-2.48,0-3.42l-4.94-2.85c-1.64-0.95-1.64-2.48,0-3.42h0
			c1.64-0.95,4.29-0.95,5.93,0l11.22,6.48c1.64,0.95,4.29,0.95,5.93,0h0c1.64-0.95,1.64-2.48,0-3.42l-2.85-1.65
			c-1.64-0.95-1.64-2.48,0-3.42l0,0c1.64-0.95,4.29-0.95,5.93,0l10.81,6.24c1.64,0.95,4.29,0.95,5.93,0h0
			c1.64-0.95,1.64-2.48,0-3.42l-60.18-34.75c-1.64-0.95-4.29-0.95-5.93,0h0C475.82,702.92,475.82,704.45,477.46,705.39z
			 M508.83,726.93L508.83,726.93c-1.64,0.95-4.29,0.95-5.93,0l-3.99-2.3c-1.64-0.95-1.64-2.48,0-3.42h0c1.64-0.95,4.29-0.95,5.93,0
			l3.99,2.3C510.46,724.45,510.46,725.99,508.83,726.93z"/>
		<path class="st21" d="M546.47,741.82L546.47,741.82c-1.64,0.95-1.64,2.48,0,3.42l2.67,1.54c1.64,0.95,4.29,0.95,5.93,0l0,0
			c1.64-0.95,1.64-2.48,0-3.42l-2.67-1.54C550.77,740.88,548.11,740.88,546.47,741.82z"/>
	</g>
	<g class="st20">
		<path class="st21" d="M994.23,640.94L994.23,640.94c1.9-1.1,4.98-1.1,6.88,0l2.5,1.44c1.9,1.1,4.98,1.1,6.88,0l0,0
			c1.9-1.1,1.9-2.88,0-3.97l-33.54-19.37c-1.9-1.1-4.98-1.1-6.88,0l0,0c-1.9,1.1-1.9,2.88,0,3.97l10.26,5.92
			c1.9,1.1,1.9,2.88,0,3.97l0,0c-1.9,1.1-4.98,1.1-6.88,0l-3.68-2.12c-1.9-1.1-4.98-1.1-6.88,0l0,0c-1.9,1.1-1.9,2.88,0,3.97
			l46.46,26.83c1.9,1.1,4.98,1.1,6.88,0l0,0c1.9-1.1,1.9-2.88,0-3.97l-22-12.7C992.33,643.82,992.33,642.04,994.23,640.94z"/>
		<path class="st21" d="M1014.47,648.66l-1.21-0.7c-1.9-1.1-1.9-2.88,0-3.97l0,0c1.9-1.1,4.98-1.1,6.88,0l1.21,0.7
			c1.9,1.1,1.9,2.88,0,3.97l0,0C1019.46,649.76,1016.37,649.76,1014.47,648.66z"/>
	</g>
	<g class="st20">
		<path class="st21" d="M345.6,624.72L345.6,624.72c2.49-1.44,6.52-1.44,9.01,0l3.27,1.89c2.49,1.44,6.52,1.44,9.01,0l0,0
			c2.49-1.44,2.49-3.76,0-5.2l-43.88-25.34c-2.49-1.44-6.52-1.44-9.01,0h0c-2.49,1.44-2.49,3.76,0,5.2l13.42,7.75
			c2.49,1.44,2.49,3.76,0,5.2l0,0c-2.49,1.44-6.52,1.44-9.01,0l-4.81-2.78c-2.49-1.44-6.52-1.44-9.01,0l0,0
			c-2.49,1.44-2.49,3.76,0,5.2l60.78,35.1c2.49,1.44,6.52,1.44,9.01,0l0,0c2.49-1.44,2.49-3.76,0-5.2l-28.78-16.62
			C343.11,628.48,343.11,626.15,345.6,624.72z"/>
		<path class="st21" d="M372.08,634.81l-1.59-0.92c-2.49-1.44-2.49-3.76,0-5.2l0,0c2.49-1.44,6.52-1.44,9.01,0l1.59,0.92
			c2.49,1.44,2.49,3.76,0,5.2l0,0C378.6,636.25,374.57,636.25,372.08,634.81z"/>
	</g>
	<g class="st20">
		<path class="st21" d="M723.23,342.62L723.23,342.62c1.59-0.92,4.17-0.92,5.77,0l2.09,1.21c1.59,0.92,4.17,0.92,5.77,0l0,0
			c1.59-0.92,1.59-2.41,0-3.33l-28.1-16.22c-1.59-0.92-4.17-0.92-5.77,0h0c-1.59,0.92-1.59,2.41,0,3.33l8.59,4.96
			c1.59,0.92,1.59,2.41,0,3.33l0,0c-1.59,0.92-4.17,0.92-5.77,0l-3.08-1.78c-1.59-0.92-4.17-0.92-5.77,0l0,0
			c-1.59,0.92-1.59,2.41,0,3.33l38.92,22.47c1.59,0.92,4.17,0.92,5.77,0l0,0c1.59-0.92,1.59-2.41,0-3.33l-18.43-10.64
			C721.63,345.03,721.63,343.54,723.23,342.62z"/>
		<path class="st21" d="M740.19,349.09l-1.02-0.59c-1.59-0.92-1.59-2.41,0-3.33l0,0c1.59-0.92,4.17-0.92,5.77,0l1.02,0.59
			c1.59,0.92,1.59,2.41,0,3.33l0,0C744.36,350,741.78,350,740.19,349.09z"/>
	</g>
	<g class="st20">
		<path class="st21" d="M454.47,469.78l12.54,7.24c1.49,0.86,1.49,2.26,0,3.12l0,0c-1.49,0.86-3.91,0.86-5.4,0l-4.29-2.48
			c-1.49-0.86-3.91-0.86-5.4,0l0,0c-1.49,0.86-1.49,2.26,0,3.12l4.29,2.48c1.49,0.86,1.49,2.26,0,3.12l0,0
			c-1.49,0.86-3.91,0.86-5.4,0l-13.12-7.58c-1.49-0.86-3.91-0.86-5.4,0h0c-1.49,0.86-1.49,2.26,0,3.12l42.39,24.48
			c1.49,0.86,3.91,0.86,5.4,0l0,0c1.49-0.86,1.49-2.26,0-3.12l-4.5-2.6c-1.49-0.86-1.49-2.26,0-3.12h0c1.49-0.86,3.91-0.86,5.4,0
			l10.21,5.9c1.49,0.86,3.91,0.86,5.4,0h0c1.49-0.86,1.49-2.26,0-3.12l-2.59-1.5c-1.49-0.86-1.49-2.26,0-3.12h0
			c1.49-0.86,3.91-0.86,5.4,0l9.84,5.68c1.49,0.86,3.91,0.86,5.4,0l0,0c1.49-0.86,1.49-2.26,0-3.12l-54.77-31.63
			c-1.49-0.86-3.91-0.86-5.4,0h0C452.98,467.52,452.98,468.92,454.47,469.78z M483.03,489.38L483.03,489.38
			c-1.49,0.86-3.91,0.86-5.4,0l-3.63-2.09c-1.49-0.86-1.49-2.26,0-3.12h0c1.49-0.86,3.91-0.86,5.4,0l3.63,2.09
			C484.52,487.12,484.52,488.52,483.03,489.38z"/>
		<path class="st21" d="M517.29,502.93L517.29,502.93c-1.49,0.86-1.49,2.26,0,3.12l2.43,1.41c1.49,0.86,3.91,0.86,5.4,0l0,0
			c1.49-0.86,1.49-2.26,0-3.12l-2.43-1.41C521.2,502.07,518.78,502.07,517.29,502.93z"/>
	</g>
	<path class="st22" d="M691.93,671.59L691.93,671.59c-1.49,0.86-1.49,2.26,0,3.12l2.43,1.41c1.49,0.86,3.91,0.86,5.4,0l0,0
		c1.49-0.86,1.49-2.26,0-3.12l-2.43-1.41C695.83,670.73,693.42,670.73,691.93,671.59z"/>
	<g class="st20">
		<path class="st21" d="M802.64,612.87L802.64,612.87c1.87-1.08,4.9-1.08,6.77,0l2.46,1.42c1.87,1.08,4.9,1.08,6.77,0l0,0
			c1.87-1.08,1.87-2.83,0-3.91l-33-19.05c-1.87-1.08-4.9-1.08-6.77,0h0c-1.87,1.08-1.87,2.83,0,3.91l10.09,5.83
			c1.87,1.08,1.87,2.83,0,3.91l0,0c-1.87,1.08-4.9,1.08-6.77,0l-3.62-2.09c-1.87-1.08-4.9-1.08-6.77,0l0,0
			c-1.87,1.08-1.87,2.83,0,3.91l45.71,26.39c1.87,1.08,4.9,1.08,6.77,0l0,0c1.87-1.08,1.87-2.83,0-3.91l-21.64-12.5
			C800.77,615.7,800.77,613.95,802.64,612.87z"/>
		<path class="st21" d="M822.56,620.46l-1.2-0.69c-1.87-1.08-1.87-2.83,0-3.91l0,0c1.87-1.08,4.9-1.08,6.77,0l1.2,0.69
			c1.87,1.08,1.87,2.83,0,3.91l0,0C827.46,621.54,824.43,621.54,822.56,620.46z"/>
	</g>
	<g class="st20">
		<path class="st21" d="M1101.27,658.17l12.63,7.29c1.5,0.87,1.5,2.27,0,3.14l0,0c-1.5,0.87-3.93,0.87-5.43,0l-4.32-2.49
			c-1.5-0.87-3.93-0.87-5.43,0l0,0c-1.5,0.87-1.5,2.27,0,3.14l4.32,2.49c1.5,0.87,1.5,2.27,0,3.14l0,0c-1.5,0.87-3.93,0.87-5.43,0
			l-13.21-7.63c-1.5-0.87-3.93-0.87-5.43,0l0,0c-1.5,0.87-1.5,2.27,0,3.14l42.68,24.64c1.5,0.87,3.93,0.87,5.43,0l0,0
			c1.5-0.87,1.5-2.27,0-3.14l-4.53-2.61c-1.5-0.87-1.5-2.27,0-3.14h0c1.5-0.87,3.93-0.87,5.43,0l10.28,5.94
			c1.5,0.87,3.93,0.87,5.43,0h0c1.5-0.87,1.5-2.27,0-3.14l-2.61-1.51c-1.5-0.87-1.5-2.27,0-3.14h0c1.5-0.87,3.93-0.87,5.43,0
			l9.91,5.72c1.5,0.87,3.93,0.87,5.43,0l0,0c1.5-0.87,1.5-2.27,0-3.14l-55.14-31.84c-1.5-0.87-3.93-0.87-5.43,0l0,0
			C1099.77,655.9,1099.77,657.3,1101.27,658.17z M1130.02,677.91L1130.02,677.91c-1.5,0.87-3.93,0.87-5.43,0l-3.65-2.11
			c-1.5-0.87-1.5-2.27,0-3.14h0c1.5-0.87,3.93-0.87,5.43,0l3.65,2.11C1131.52,675.63,1131.52,677.04,1130.02,677.91z"/>
		<path class="st21" d="M1164.51,691.55L1164.51,691.55c-1.5,0.87-1.5,2.27,0,3.14l2.45,1.42c1.5,0.87,3.93,0.87,5.43,0l0,0
			c1.5-0.87,1.5-2.27,0-3.14l-2.45-1.42C1168.45,690.68,1166.01,690.68,1164.51,691.55z"/>
	</g>
	<g id="XMLID_638_">
		<path id="XMLID_1_" class="st23" d="M934.46,641.77c0,0,12.46,10.54,25.29,9.78c39.3-6.12,66.22-21.32,106.78-61.06
			c0.82-9.5-11.92-11.92-11.92-11.92L934.46,641.77z"/>
		<path id="XMLID_194_" class="st24" d="M922.54,634.96c0,0,12.46,10.54,25.29,9.78c39.3-6.12,66.63-16.33,107.19-56.07
			c0.82-9.5-0.21-12.88-0.21-12.88L922.54,634.96z"/>
		<g id="XMLID_653_">
			<path id="XMLID_654_" class="st24" d="M1052.42,571c-2.08-2.51-4.87-4.78-8.24-6.73s-7.3-3.56-11.64-4.75
				c-5.66-1.56-8.28-1.37-8.28-1.37s-112.46,35.6-101.71,76.81c14.61,1.25,28.79-0.51,42.11-4.09c4.09-1.1,8.1-2.37,12.01-3.77
				c9.1-3.28,17.69-7.3,25.61-11.64c0.58-0.32,1.15-0.63,1.72-0.95c3.16-1.77,6.2-3.58,9.12-5.41c9.09-5.7,16.99-11.57,23.41-16.76
				c2.8-2.27,5.31-4.4,7.52-6.34c6.91-6.08,10.77-10.2,10.77-10.2S1055.13,574.28,1052.42,571z M970.63,625.79
				c-3.29,1.1-6.55,2.06-9.79,2.89h-0.01l-21.46-12.33c0,0,3.74-3.77,7.4-6.51l26.22,15.13
				C972.2,625.26,971.41,625.53,970.63,625.79z M1000.43,612.45l-28.94-16.71l9.22-5.36l28.84,16.65
				C1006.51,608.94,1003.47,610.75,1000.43,612.45z M1032.9,590.25l-26.14-15.1l9.22-5.36l24.41,14.09
				C1038.21,585.82,1035.7,587.96,1032.9,590.25z"/>
		</g>
		<g id="XMLID_648_">
			<path id="XMLID_649_" class="st25" d="M1052.42,571c-2.08-2.51-4.87-4.78-8.24-6.73s-7.3-3.56-11.64-4.75
				c-5.66-1.56-8.28-1.37-8.28-1.37s-112.46,35.6-101.71,76.81c13.76,1.18,27.14-0.31,39.77-3.49c0.78-0.19,1.56-0.39,2.34-0.6
				c4.09-1.1,8.1-2.37,12.01-3.77c9.1-3.28,17.69-7.3,25.61-11.64c0.58-0.32,1.15-0.63,1.72-0.95c3.16-1.77,6.2-3.58,9.12-5.41
				c8.43-5.29,15.85-10.72,22-15.63c0.48-0.38,0.95-0.76,1.41-1.13c2.8-2.27,5.31-4.4,7.52-6.34c6.91-6.08,10.77-10.2,10.77-10.2
				S1055.13,574.28,1052.42,571z M1046.64,578.14c-0.01,0.01-0.02,0.01-0.02,0.02c-1.07,1.03-2.36,2.24-3.85,3.59
				c-0.74,0.68-1.53,1.39-2.38,2.13c-2.18,1.93-4.69,4.08-7.49,6.36c-0.46,0.37-0.92,0.75-1.4,1.14
				c-5.64,4.52-12.39,9.52-19.99,14.41c-0.65,0.42-1.3,0.83-1.95,1.24c-3.04,1.91-6.08,3.71-9.12,5.42
				c-0.58,0.32-1.15,0.64-1.72,0.95c-8.62,4.71-17.22,8.58-25.72,11.57c-0.78,0.28-1.57,0.55-2.36,0.81
				c-3.29,1.1-6.55,2.06-9.79,2.89h-0.01c-0.79,0.2-1.59,0.4-2.38,0.58c-10.75,2.53-21.26,3.56-31.4,3.08
				c-1.18-8.07,2.57-16.55,11.16-25.26c7.71-7.8,19.28-15.79,34.4-23.74c22.87-12.01,47.08-20.32,52.81-22.22
				c0.9,0.1,2.54,0.36,4.97,1.03c3.8,1.05,7.25,2.46,10.24,4.19c2.99,1.72,5.43,3.72,7.26,5.92c1.16,1.4,1.62,2.36,1.79,2.87
				C1049.06,575.77,1048.03,576.8,1046.64,578.14z"/>
		</g>
		<path id="XMLID_187_" class="st26" d="M960.83,628.68c-0.79,0.2-1.59,0.4-2.38,0.58l-19.08-10.95v-1.95L960.83,628.68z"/>
		<path id="XMLID_186_" class="st27" d="M1049.68,575.13c-0.62,0.64-1.65,1.67-3.05,3.01l-0.01,0.01c0,0-0.01,0.01-0.01,0.02
			c-1.07,1.03-2.36,2.24-3.85,3.59c-2.7,1.62-6.76,2.55-11.97-0.57c-6.28-3.77-5.38-20.06-5.38-20.06c0.9,0.1,2.54,0.36,4.97,1.03
			c3.8,1.05,7.25,2.46,10.24,4.19c2.99,1.72,5.43,3.72,7.26,5.92C1049.05,573.66,1049.51,574.61,1049.68,575.13z"/>
		<g id="XMLID_640_">
			<path id="XMLID_185_" class="st26" d="M1000.43,612.45c-0.58,0.32-1.15,0.64-1.72,0.95l-27.22-15.72v-1.95L1000.43,612.45z"/>
			<g id="XMLID_641_">
				<path id="XMLID_184_" class="st25" d="M1009.55,607.03c-3.04,1.91-6.08,3.71-9.12,5.42l-28.94-16.71l9.22-5.36L1009.55,607.03z"
					/>
				<path id="XMLID_183_" class="st25" d="M1040.39,583.88c-2.18,1.93-4.69,4.08-7.49,6.36l-26.14-15.1l9.22-5.36L1040.39,583.88z"
					/>
				<path id="XMLID_182_" class="st25" d="M972.98,624.98c-0.78,0.28-1.57,0.55-2.36,0.81c-3.29,1.1-6.55,2.06-9.79,2.89h-0.01
					l-21.46-12.33c0,0,3.74-3.77,7.4-6.51L972.98,624.98z"/>
			</g>
		</g>
		<path id="XMLID_181_" class="st26" d="M1032.9,590.25c-0.46,0.37-0.92,0.75-1.4,1.14l-24.74-14.28v-1.95L1032.9,590.25z"/>
	</g>
	<g>
		<g id="XMLID_763_" class="st28">
			<path id="XMLID_195_" class="st29" d="M686.34,701.94c-11.37-6.56-29.75-6.56-41.05,0c-11.3,6.57-11.24,17.21,0.13,23.78
				c11.37,6.57,29.76,6.57,41.06,0C697.77,719.15,697.71,708.51,686.34,701.94"/>
		</g>
		<g id="XMLID_140_">
			
				<ellipse id="XMLID_161_" transform="matrix(0.9614 -0.2752 0.2752 0.9614 -168.363 208.0167)" class="st30" cx="656.97" cy="703.87" rx="24.66" ry="24.66"/>
			<g id="XMLID_141_">
				<g id="XMLID_144_">
					<g id="XMLID_145_">
						<g id="XMLID_159_">
							<path id="XMLID_160_" class="st31" d="M663.97,683.99c1.25-0.03,2.66,0.35,3.98,1.17c0.6,0.37,1.13,0.8,1.58,1.27
								c0.73-0.26,2.47-0.83,3.89-0.91c-3.79-3.4-8.5-5.49-13.43-6.1C661.1,680.19,662.76,681.64,663.97,683.99z"/>
						</g>
						<g id="XMLID_148_">
							<path id="XMLID_158_" class="st32" d="M681.62,704.15c-1.92-7-8.65-12.28-10.41-13.55c-0.06,0.4-0.19,0.77-0.4,1.12
								c-0.63,1.03-1.85,1.55-3.27,1.56c0.52,3.5,3.9,28.68-6.52,34.93c3.05-0.51,6.05-1.6,8.85-3.31
								C677.36,720.29,681.52,712.33,681.62,704.15z"/>
						</g>
						<g id="XMLID_146_">
							<path id="XMLID_147_" class="st33" d="M661.97,690.72c-1.37-1.47-1.94-3.26-1.41-4.67c-2.62-0.74-14.79-3.66-23.24,2.92
								c-5.97,7.87-6.86,18.9-1.37,27.83c0.52,0.85,1.1,1.66,1.7,2.42C637.81,709.64,658.84,693.13,661.97,690.72z"/>
						</g>
					</g>
				</g>
				<g id="XMLID_142_">
					<path id="XMLID_143_" class="st33" d="M670.81,691.71c-1.18,1.92-4.38,2.09-7.14,0.39c-2.76-1.7-4.04-4.64-2.86-6.56
						c1.18-1.92,4.38-2.09,7.15-0.39C670.71,686.86,671.99,689.79,670.81,691.71z"/>
				</g>
			</g>
		</g>
	</g>
	<ellipse id="XMLID_214_" class="st34" cx="620.32" cy="405.53" rx="65.75" ry="27.83"/>
	<g id="XMLID_6031_">
		<g id="XMLID_5798_">
			<g id="XMLID_6067_" class="st1">
				<g id="XMLID_6388_" class="st1">
					<defs>
						<path id="XMLID_6395_" class="st1" d="M820.83,281.53l-6.7,3.89c0.16-0.09,0.29-0.26,0.37-0.49l6.7-3.89
							C821.12,281.27,820.99,281.43,820.83,281.53z"/>
					</defs>
					<clipPath id="XMLID_9_">
						<use xlink:href="#XMLID_6395_"  style="overflow:visible;"/>
					</clipPath>
					<g id="XMLID_6389_" class="st35">
						<path id="XMLID_6394_" class="st36" d="M814.51,284.93l6.7-3.89c0,0.01-0.01,0.02-0.01,0.03l-6.7,3.89
							C814.5,284.95,814.5,284.94,814.51,284.93L814.51,284.93z"/>
						<path id="XMLID_6392_" class="st37" d="M814.5,284.96l6.7-3.89c-0.01,0.03-0.03,0.07-0.04,0.1l-6.7,3.89
							C814.47,285.02,814.48,284.99,814.5,284.96L814.5,284.96z"/>
						<path id="XMLID_6391_" class="st38" d="M814.46,285.05l6.7-3.89c-0.02,0.04-0.04,0.07-0.06,0.11l-6.7,3.89
							C814.42,285.13,814.44,285.09,814.46,285.05L814.46,285.05z"/>
						<path id="XMLID_6390_" class="st39" d="M814.4,285.16l6.7-3.89c-0.07,0.11-0.16,0.2-0.26,0.26l-6.7,3.89
							C814.24,285.36,814.32,285.28,814.4,285.16L814.4,285.16z"/>
					</g>
				</g>
				<g id="XMLID_5942_">
					<g>
						<path class="st4" d="M673.11,106.3c-0.37-0.2-0.74-0.39-1.11-0.58c-0.37-0.18-0.73-0.35-1.1-0.52
							c-0.36-0.16-0.73-0.32-1.08-0.46c-0.37-0.15-0.73-0.28-1.09-0.41c-0.36-0.13-0.73-0.25-1.09-0.36
							c-0.38-0.11-0.75-0.22-1.12-0.31c-0.37-0.09-0.74-0.18-1.11-0.25c-0.4-0.08-0.8-0.14-1.19-0.2c-0.41-0.05-0.81-0.1-1.21-0.12
							c-0.43-0.03-0.86-0.04-1.27-0.04c-0.48,0-0.95,0.02-1.41,0.07c-0.53,0.05-1.05,0.12-1.56,0.23c-0.65,0.13-1.28,0.3-1.89,0.52
							c-0.77,0.27-1.5,0.61-2.19,1.01l-6.7,3.89c0.7-0.4,1.43-0.74,2.19-1.01c0.61-0.22,1.24-0.39,1.89-0.52
							c0.51-0.1,1.03-0.18,1.56-0.23c0.46-0.04,0.93-0.06,1.41-0.07c0.42,0,0.84,0.01,1.27,0.04c0.4,0.03,0.8,0.07,1.21,0.12
							c0.39,0.05,0.79,0.12,1.19,0.2c0.37,0.07,0.74,0.15,1.11,0.25c0.37,0.09,0.74,0.2,1.12,0.31c0.36,0.11,0.72,0.23,1.09,0.36
							c0.36,0.13,0.73,0.26,1.09,0.41c0.36,0.14,0.72,0.3,1.08,0.46c0.36,0.16,0.73,0.34,1.1,0.52c0.37,0.18,0.74,0.37,1.11,0.58
							c0.29,0.16,0.57,0.32,0.86,0.48l6.7-3.89C673.68,106.62,673.4,106.46,673.11,106.3z"/>
						<g id="XMLID_361_">
							<polygon id="XMLID_362_" class="st4" points="822.18,262.33 828.88,258.43 821.2,281.03 814.51,284.93 							"/>
						</g>
						<g id="XMLID_328_" class="st1">
							<path id="XMLID_360_" class="st40" d="M821.98,200.14l6.7-3.89c0.4,0.28,0.8,0.56,1.2,0.85l-6.7,3.89
								C822.79,200.7,822.39,200.41,821.98,200.14L821.98,200.14z"/>
							<path id="XMLID_359_" class="st40" d="M823.18,200.99l6.7-3.89c0.42,0.31,0.83,0.62,1.24,0.95l-6.7,3.89
								C824.01,201.61,823.6,201.3,823.18,200.99L823.18,200.99z"/>
							<path id="XMLID_358_" class="st40" d="M824.42,201.94l6.7-3.89c0.43,0.34,0.86,0.69,1.28,1.05l-6.7,3.89
								C825.28,202.63,824.85,202.28,824.42,201.94L824.42,201.94z"/>
							<path id="XMLID_357_" class="st40" d="M825.7,202.99l6.7-3.89c0.47,0.4,0.94,0.82,1.41,1.25l-6.7,3.89
								C826.65,203.81,826.18,203.4,825.7,202.99L825.7,202.99z"/>
							<path id="XMLID_356_" class="st40" d="M827.11,204.24l6.7-3.89c0.51,0.47,1.02,0.96,1.52,1.45l-6.7,3.89
								C828.13,205.2,827.63,204.71,827.11,204.24L827.11,204.24z"/>
							<path id="XMLID_355_" class="st40" d="M828.63,205.69l6.7-3.89c0.59,0.58,1.17,1.19,1.73,1.8l-6.7,3.89
								C829.8,206.88,829.22,206.28,828.63,205.69L828.63,205.69z"/>
							<path id="XMLID_354_" class="st40" d="M830.36,207.5l6.7-3.89c0.77,0.84,1.52,1.7,2.25,2.59l-6.7,3.89
								C831.88,209.2,831.13,208.33,830.36,207.5L830.36,207.5z"/>
							<path id="XMLID_353_" class="st40" d="M832.61,210.09l6.7-3.89c2.87,3.51,5.42,7.42,7.52,11.52l-6.7,3.89
								C838.03,217.52,835.49,213.6,832.61,210.09L832.61,210.09z"/>
							<path id="XMLID_352_" class="st40" d="M840.13,221.61l6.7-3.89c0.53,1.03,1.03,2.07,1.5,3.12l-6.7,3.89
								C841.16,223.68,840.66,222.64,840.13,221.61L840.13,221.61z"/>
							<path id="XMLID_351_" class="st40" d="M841.63,224.73l6.7-3.89c0.36,0.81,0.7,1.62,1.03,2.44l-6.7,3.89
								C842.33,226.36,841.99,225.54,841.63,224.73L841.63,224.73z"/>
							<path id="XMLID_350_" class="st40" d="M842.66,227.17l6.7-3.89c0.28,0.7,0.54,1.4,0.79,2.1l-6.7,3.89
								C843.2,228.57,842.94,227.87,842.66,227.17L842.66,227.17z"/>
							<path id="XMLID_349_" class="st40" d="M843.45,229.28l6.7-3.89c0.21,0.6,0.42,1.2,0.61,1.81l-6.7,3.89
								C843.87,230.48,843.66,229.88,843.45,229.28L843.45,229.28z"/>
							<path id="XMLID_348_" class="st40" d="M844.06,231.08l6.7-3.89c0.18,0.57,0.35,1.14,0.51,1.71l-6.7,3.89
								C844.41,232.22,844.24,231.65,844.06,231.08L844.06,231.08z"/>
							<path id="XMLID_347_" class="st40" d="M844.57,232.79l6.7-3.89c0.15,0.54,0.3,1.07,0.43,1.61l-6.7,3.89
								C844.87,233.86,844.73,233.33,844.57,232.79L844.57,232.79z"/>
							<path id="XMLID_346_" class="st40" d="M845,234.4l6.7-3.89c0.13,0.5,0.24,1,0.35,1.5l-6.7,3.89
								C845.25,235.4,845.13,234.9,845,234.4L845,234.4z"/>
							<path id="XMLID_345_" class="st40" d="M845.36,235.9l6.7-3.89c0.11,0.49,0.21,0.98,0.3,1.47l-6.7,3.89
								C845.56,236.88,845.46,236.39,845.36,235.9L845.36,235.9z"/>
							<path id="XMLID_344_" class="st40" d="M845.66,237.37l6.7-3.89c0.09,0.46,0.17,0.92,0.24,1.38l-6.7,3.89
								C845.82,238.29,845.74,237.83,845.66,237.37L845.66,237.37z"/>
							<path id="XMLID_343_" class="st40" d="M845.9,238.75l6.7-3.89c0.07,0.46,0.14,0.92,0.2,1.37l-6.7,3.89
								C846.04,239.67,845.97,239.21,845.9,238.75L845.9,238.75z"/>
							<path id="XMLID_342_" class="st40" d="M846.09,240.12l6.7-3.89c0.06,0.45,0.11,0.89,0.15,1.33l-6.7,3.89
								C846.2,241.01,846.15,240.57,846.09,240.12L846.09,240.12z"/>
							<path id="XMLID_341_" class="st40" d="M846.24,241.46l6.7-3.89c0.04,0.44,0.08,0.88,0.11,1.32l-6.7,3.89
								C846.32,242.34,846.28,241.9,846.24,241.46L846.24,241.46z"/>
							<path id="XMLID_340_" class="st40" d="M846.35,242.78l6.7-3.89c0.03,0.44,0.05,0.88,0.06,1.31l-6.7,3.89
								C846.39,243.65,846.37,243.22,846.35,242.78L846.35,242.78z"/>
							<path id="XMLID_339_" class="st40" d="M846.41,244.09l6.7-3.89c0.01,0.41,0.02,0.82,0.02,1.22c0,0.03,0,0.05,0,0.08
								l-6.7,3.89c0-0.03,0-0.05,0-0.08C846.43,244.91,846.42,244.5,846.41,244.09L846.41,244.09z"/>
							<path id="XMLID_338_" class="st40" d="M846.42,245.39l6.7-3.89c0,0.44-0.01,0.88-0.03,1.31l-6.7,3.89
								C846.41,246.27,846.42,245.83,846.42,245.39L846.42,245.39z"/>
							<path id="XMLID_337_" class="st40" d="M846.39,246.7l6.7-3.89c-0.02,0.44-0.04,0.86-0.08,1.28l-6.7,3.89
								C846.35,247.56,846.38,247.13,846.39,246.7L846.39,246.7z"/>
							<path id="XMLID_336_" class="st40" d="M846.31,247.98l6.7-3.89c-0.04,0.44-0.08,0.87-0.13,1.29l-6.7,3.89
								C846.23,248.85,846.28,248.42,846.31,247.98L846.31,247.98z"/>
							<path id="XMLID_335_" class="st40" d="M846.18,249.28l6.7-3.89c-0.06,0.44-0.12,0.88-0.2,1.31l-6.7,3.89
								C846.06,250.16,846.12,249.72,846.18,249.28L846.18,249.28z"/>
							<path id="XMLID_334_" class="st40" d="M845.98,250.58l6.7-3.89c-0.08,0.44-0.16,0.88-0.26,1.3l-6.7,3.89
								C845.82,251.46,845.91,251.03,845.98,250.58L845.98,250.58z"/>
							<path id="XMLID_333_" class="st40" d="M845.72,251.88l6.7-3.89c-0.11,0.48-0.23,0.94-0.36,1.39l-6.7,3.89
								C845.49,252.83,845.62,252.36,845.72,251.88L845.72,251.88z"/>
							<path id="XMLID_332_" class="st40" d="M845.36,253.28l6.7-3.89c-0.15,0.5-0.31,0.98-0.48,1.45l-6.7,3.89
								C845.06,254.26,845.22,253.78,845.36,253.28L845.36,253.28z"/>
							<path id="XMLID_331_" class="st40" d="M844.88,254.73l6.7-3.89c-0.2,0.54-0.42,1.07-0.66,1.57l-6.7,3.89
								C844.46,255.79,844.68,255.27,844.88,254.73L844.88,254.73z"/>
							<path id="XMLID_330_" class="st40" d="M844.22,256.3l6.7-3.89c-0.31,0.65-0.65,1.26-1.02,1.84l-6.7,3.89
								C843.57,257.56,843.91,256.94,844.22,256.3L844.22,256.3z"/>
							<path id="XMLID_329_" class="st40" d="M843.2,258.13l6.7-3.89c-1.25,1.96-2.83,3.49-4.68,4.56l-6.7,3.89
								C840.37,261.62,841.95,260.09,843.2,258.13L843.2,258.13z"/>
						</g>
					</g>
				</g>
				<g id="XMLID_6076_">
					<path id="XMLID_6261_" class="st5" d="M819.4,198.51c14.97,8.64,27.07,29.6,27.02,46.8c-0.05,16.06-10.65,23.16-24.24,17.02
						l-7.68,22.6c-0.23,0.67-0.85,0.74-1.48,0.38c-0.54-0.31-1.08-0.94-1.37-1.76l-11.91-33.97L667.1,172.98
						c-14.97-8.64-27.07-29.6-27.02-46.8s12.23-24.14,27.2-15.5L819.4,198.51z"/>
				</g>
			</g>
		</g>
	</g>
	<path class="st4" d="M826.29,194.73L826.29,194.73l-0.18-0.11c0,0,0,0-0.01,0l0,0l0,0l0,0l-0.2-0.11l0,0l-151.93-87.72l-6.7,3.89
		l151.94,87.72l0.2,0.11c14.97,8.65,27.06,29.6,27.01,46.8c-0.02,8.55-3.04,14.56-7.9,17.38l6.7-3.89c4.86-2.83,7.88-8.84,7.9-17.38
		C853.17,224.29,841.17,203.45,826.29,194.73z"/>
	<g>
		<g>
			<g>
				<path class="st21" d="M704.92,145.2c1.07,0.62,1.76,1.19,2.1,1.72c0.33,0.53,0.5,1.12,0.5,1.77l0,0.38l0,0.14l0,0.1l-0.01,1.93
					l-0.04,13.18l-0.05,3.3l-0.04,2.23l0,0.86c0,0.29-0.12,0.45-0.35,0.49c-0.23,0.05-0.49-0.01-0.78-0.18
					c-1.12-0.65-2.09-1.65-2.89-2.99c-0.81-1.35-1.46-2.83-1.97-4.44c-0.51-1.62-0.94-3.22-1.29-4.81l-0.18-0.83l-0.27-1.24
					l-0.61-2.84c0,0.51,0.02,1.4,0.04,2.67c0.03,1.28,0.04,2.18,0.04,2.7l0.09,6.05l0,0.35c0,1.61-0.51,2.12-1.51,1.54
					c-0.7-0.4-1.23-0.76-1.61-1.07c-0.38-0.31-0.68-0.69-0.89-1.13c-0.17-0.37-0.28-0.85-0.35-1.43c-0.07-0.58-0.1-1.53-0.09-2.89
					l0-0.82l0-1.03l0.01-1.82l0.13-9.8l0-1.25l0-0.52l-0.02-0.27l0-0.19c0-0.5,0.01-0.94,0.02-1.31c0.01-0.37,0.05-0.73,0.11-1.11
					c0.06-0.36,0.19-0.63,0.39-0.79c0.2-0.16,0.51-0.12,0.91,0.12c1.13,0.65,2,1.29,2.6,1.93c0.61,0.63,1.05,1.31,1.32,2.01
					c0.29,0.69,0.51,1.49,0.68,2.42l0.18,0.94l0.28,1.51l0.24,1.27l0.08,0.36l0,0.07l0,0.19l0.11,0.46l0.29,1.39l0.44,1.91
					l0.44,1.79l-0.01-2.98l-0.12-3.75l-0.09-3.46l-0.03-2.02l-0.02-0.22l-0.04-0.38C702.68,144.4,703.43,144.33,704.92,145.2z"/>
			</g>
			<g>
				<path class="st21" d="M712.83,170.41c-0.14,0.01-0.22,0.15-0.22,0.4c0,0.49,0.06,0.89,0.18,1.19c0.13,0.31,0.34,0.55,0.64,0.72
					c0.19,0.11,0.38,0.14,0.56,0.09l0.72-0.29c0.14-0.09,0.24-0.15,0.31-0.18c0.06-0.02,0.19-0.06,0.36-0.12
					c0.17-0.05,0.33-0.04,0.48,0.04c0.48,0.28,0.89,0.63,1.24,1.04c0.34,0.41,0.52,0.82,0.52,1.23c0,0.34-0.19,0.76-0.57,1.23
					c-0.38,0.49-0.87,0.82-1.47,1.02c-0.61,0.19-1.27,0.08-1.99-0.34c-0.38-0.22-0.72-0.44-0.99-0.67
					c-0.27-0.21-0.63-0.57-1.05-1.06c-0.43-0.49-0.84-1.14-1.24-1.94c-0.4-0.81-0.7-1.66-0.9-2.56c-0.2-0.9-0.3-1.81-0.3-2.74
					c0-1.36,0.15-2.72,0.45-4.06s0.69-2.38,1.18-3.11c0.49-0.73,1.01-0.94,1.56-0.62c1.55,0.89,2.72,1.94,3.53,3.17
					c0.8,1.22,1.33,2.49,1.57,3.8c0.25,1.32,0.36,2.84,0.36,4.59c0,0.33-0.02,0.55-0.07,0.66c-0.04,0.11-0.14,0.17-0.31,0.17
					l-0.59-0.16l-1.76-0.71l-1.28-0.52C713.28,170.49,712.98,170.4,712.83,170.41z M712.99,166.66l-0.23,0.98
					c0.23,0.13,0.42,0.21,0.57,0.26l0.47,0.13c0.29,0.07,0.45,0.09,0.51,0.04c0.04-0.05,0.07-0.22,0.07-0.52l0-0.3l0-0.29
					c0-0.43-0.01-0.72-0.03-0.89c-0.02-0.17-0.08-0.46-0.16-0.89c-0.09-0.42-0.21-0.67-0.38-0.77c-0.12-0.07-0.25,0.08-0.37,0.45
					c-0.12,0.38-0.22,0.73-0.29,1.03C713.09,166.21,713.04,166.46,712.99,166.66"/>
			</g>
			<g>
				<path class="st21" d="M725.45,166.19c0.26,0.15,0.6,0.46,1.01,0.91c0.4,0.48,0.73,0.95,0.99,1.41c0.26,0.46,0.39,0.84,0.39,1.14
					l-0.06,0.61l-0.17,0.59l-0.23,0.53l-0.87,2.19l-0.27,0.62l-0.31,0.65c-0.06,0.19-0.09,0.3-0.1,0.35
					c-0.01,0.04-0.01,0.14-0.01,0.3l0.06,0.48l0.18,0.63l0.04,0.12l0.04,0.12l0.12,0.38l1.2,3.79l0.18,0.48l0.16,0.5l0.06,0.34
					c0,0.32-0.12,0.49-0.37,0.51c-0.24,0.04-0.54-0.05-0.9-0.26c-0.64-0.37-1.12-0.73-1.44-1.06c-0.31-0.33-0.55-0.7-0.73-1.12
					c-0.17-0.41-0.47-1.28-0.89-2.59l-0.17,0.92l-0.08,0.37l-0.33,1.32c-0.04,0.15-0.1,0.29-0.17,0.44
					c-0.08,0.15-0.17,0.29-0.29,0.42c-0.12,0.14-0.28,0.15-0.49,0.03c-0.45-0.36-1.01-0.85-1.67-1.47
					c-0.66-0.63-0.99-1.11-0.99-1.46c0-0.93,0.11-1.72,0.31-2.37c0.2-0.65,0.46-1.33,0.8-2.04c0.33-0.71,0.5-1.15,0.5-1.31
					l-0.53-2.08l-0.69-3.04c-0.23-1.08-0.35-1.83-0.35-2.25c0-0.32,0.05-0.56,0.15-0.72c0.1-0.16,0.24-0.2,0.45-0.12l1.48,0.9
					l0.49,0.28c0.23,0.13,0.43,0.44,0.59,0.9c0.15,0.46,0.32,1.1,0.49,1.9l0.35,1.5l0.62-1.46l0.82-1.81
					C725.09,166.26,725.29,166.1,725.45,166.19z"/>
			</g>
			<g>
				<path class="st21" d="M732.93,167.42c0.27,0.16,0.59,0.43,0.96,0.81c0.36,0.38,0.68,0.77,0.94,1.17
					c0.26,0.4,0.39,0.66,0.39,0.79l0,0.68l-0.11,1.43l0,1.03l0,1.18c0,0.15,0.08,0.3,0.25,0.42l0.59,0.44
					c0.25,0.2,0.44,0.46,0.57,0.81c0.17,0.36,0.25,0.87,0.25,1.53c0,0.79-0.07,1.28-0.18,1.49c-0.12,0.21-0.28,0.25-0.48,0.13
					l-0.27-0.2l-0.29-0.21c-0.33-0.19-0.49,0.16-0.5,1.06l-0.01,2.22l-0.01,2.02l0.03,2.38l0,1.36c0,0.23-0.09,0.39-0.26,0.47
					c-0.22,0.04-0.42,0.01-0.61-0.1l-1.22-0.92l-0.61-0.54c-0.43-0.35-0.71-0.58-0.83-0.71c-0.13-0.13-0.21-0.26-0.27-0.42
					c-0.05-0.15-0.1-0.3-0.14-0.46c-0.04-0.16-0.06-0.35-0.06-0.58l0-1.74l0-1.05l0.01-1.89c0.01-2.32-0.21-3.61-0.67-3.87
					l-0.22-0.08l-0.2-0.07c-0.29-0.17-0.43-0.82-0.43-1.95c0-0.52,0.07-0.83,0.19-0.94c0.13-0.11,0.33-0.12,0.61-0.03
					c0.27,0.11,0.47,0.16,0.58,0.14c0.12-0.01,0.17-0.18,0.17-0.51l0-1.75l0.01-2.33l0-0.54l0-0.38c0-0.48,0.03-0.79,0.1-0.91
					c0.06-0.12,0.2-0.14,0.41-0.06C731.84,166.81,732.27,167.04,732.93,167.42z"/>
			</g>
			<g>
				<path class="st21" d="M744.79,169.56c1.08,0.62,1.89,1.25,2.43,1.87c0.54,0.62,0.9,1.25,1.08,1.87
					c0.17,0.63,0.26,1.29,0.26,1.98l0,0.4l0,0.17l-0.02,0.08l0,0.31l0,0.12l0,0.1l0,0.21l-0.02,0.11l0,0.1l-0.01,3.94l-0.05,2.4
					l0.04,3.09l-0.09,2.75c0,0.34,0.06,0.63,0.16,0.83c0.11,0.2,0.4,0.47,0.88,0.82l1.17,0.89c0.25,0.17,0.73,0.62,1.45,1.35
					c0.73,0.73,1.09,2.08,1.08,4.06c-0.08,0-0.25-0.01-0.51-0.05c-0.26-0.04-0.61-0.12-1.06-0.24l-3.47-0.89l-1.97-0.57
					c-0.62-0.36-1.11-0.9-1.48-1.63c-0.37-0.73-0.65-1.59-0.84-2.56c-0.08-0.5-0.16-1.02-0.23-1.55c-0.08-0.53-0.11-0.97-0.11-1.31
					l-0.05-3.26l0-0.92l0.2-12.66l-0.04-0.57c0-0.59,0.08-1.01,0.23-1.25C743.97,169.26,744.3,169.28,744.79,169.56z"/>
			</g>
			<g>
				<path class="st21" d="M758.51,196.78c-0.14,0.01-0.21,0.15-0.21,0.4c0,0.49,0.06,0.88,0.18,1.19c0.12,0.3,0.33,0.54,0.63,0.72
					c0.19,0.11,0.38,0.14,0.56,0.09l0.72-0.29c0.14-0.09,0.24-0.15,0.31-0.18c0.06-0.02,0.19-0.06,0.36-0.12
					c0.17-0.05,0.33-0.04,0.48,0.04c0.48,0.28,0.89,0.63,1.24,1.04c0.35,0.42,0.52,0.82,0.52,1.23c0,0.34-0.19,0.76-0.57,1.24
					c-0.38,0.49-0.87,0.82-1.47,1.02c-0.61,0.19-1.27,0.08-1.99-0.34c-0.38-0.22-0.72-0.44-0.98-0.66
					c-0.27-0.22-0.62-0.57-1.06-1.07c-0.43-0.49-0.84-1.14-1.24-1.94c-0.4-0.81-0.7-1.66-0.9-2.56c-0.2-0.9-0.3-1.81-0.3-2.74
					c0-1.36,0.15-2.72,0.45-4.06c0.3-1.34,0.69-2.38,1.18-3.11c0.49-0.73,1.01-0.94,1.56-0.62c1.55,0.89,2.72,1.94,3.53,3.17
					c0.8,1.22,1.33,2.49,1.57,3.8c0.25,1.32,0.36,2.84,0.36,4.59c0,0.33-0.02,0.55-0.06,0.66c-0.05,0.11-0.15,0.16-0.31,0.16
					l-0.59-0.16l-1.76-0.71l-1.28-0.52C758.97,196.87,758.66,196.78,758.51,196.78z M758.68,193.03l-0.23,0.98
					c0.24,0.14,0.43,0.22,0.57,0.26l0.47,0.13c0.29,0.07,0.45,0.09,0.51,0.04c0.04-0.05,0.07-0.22,0.07-0.52l0-0.3l0-0.29
					c0-0.43-0.01-0.72-0.03-0.89c-0.02-0.17-0.08-0.46-0.16-0.88c-0.09-0.42-0.22-0.68-0.38-0.77c-0.12-0.07-0.25,0.08-0.37,0.45
					c-0.12,0.38-0.22,0.73-0.29,1.03C758.77,192.58,758.72,192.83,758.68,193.03"/>
			</g>
			<g>
				<path class="st21" d="M772.26,193.59c0.15,0.09,0.34,0.29,0.57,0.6c0.22,0.31,0.44,0.61,0.65,0.91
					c0.22,0.29,0.44,0.64,0.67,1.03c0.24,0.39,0.36,0.63,0.36,0.72c0,0.37-0.16,1.29-0.46,2.78l-0.29,1.37l-0.23,1.05l-0.1,0.55
					l-0.05,0.21l-0.08,0.33l-0.04,0.19l-0.17,0.78l-0.46,2.12l-0.21,1.14l-0.12,0.63c-0.06,0.25-0.1,0.45-0.14,0.62
					c-0.05,0.16-0.1,0.34-0.18,0.56c-0.08,0.21-0.22,0.36-0.43,0.44c-0.22,0.07-0.5,0.01-0.86-0.2c-1.58-0.91-2.79-2.31-3.63-4.18
					c-0.84-1.88-1.38-3.87-1.62-5.98c-0.24-2.1-0.36-4.31-0.35-6.63c0-0.66,0.59-0.65,1.77,0.03c0.59,0.34,1.04,0.65,1.35,0.94
					c0.31,0.28,0.52,0.54,0.64,0.79c0.11,0.25,0.18,0.59,0.22,1.04l0.12,1.27l0.48,5.92l0.32-2.84c0.16-1.56,0.33-2.79,0.5-3.7
					c0.16-0.91,0.39-1.62,0.69-2.11C771.48,193.47,771.84,193.35,772.26,193.59z"/>
			</g>
			<g>
				<path class="st21" d="M779.86,209.1c-0.14,0.01-0.22,0.15-0.22,0.4c0,0.49,0.06,0.89,0.18,1.19c0.13,0.31,0.34,0.55,0.64,0.72
					c0.19,0.11,0.38,0.14,0.56,0.09l0.72-0.29c0.14-0.09,0.24-0.15,0.31-0.18c0.06-0.02,0.19-0.06,0.36-0.12
					c0.17-0.05,0.33-0.04,0.48,0.04c0.48,0.28,0.89,0.63,1.24,1.04c0.34,0.41,0.52,0.82,0.52,1.23c0,0.34-0.19,0.76-0.57,1.23
					c-0.38,0.49-0.87,0.82-1.47,1.02c-0.61,0.19-1.27,0.08-1.99-0.34c-0.38-0.22-0.71-0.44-0.99-0.67
					c-0.27-0.21-0.63-0.57-1.05-1.06c-0.43-0.49-0.84-1.14-1.24-1.94c-0.4-0.81-0.7-1.66-0.9-2.56c-0.2-0.9-0.3-1.81-0.3-2.74
					c0-1.36,0.15-2.72,0.45-4.06c0.3-1.34,0.69-2.38,1.18-3.11c0.49-0.73,1.01-0.94,1.56-0.62c1.55,0.89,2.72,1.94,3.53,3.17
					c0.8,1.22,1.33,2.49,1.57,3.8c0.25,1.32,0.36,2.84,0.36,4.59c0,0.33-0.02,0.55-0.07,0.66c-0.04,0.11-0.14,0.17-0.31,0.17
					l-0.59-0.16l-1.76-0.71l-1.28-0.52C780.3,209.19,780,209.1,779.86,209.1z M780.02,205.35l-0.23,0.98
					c0.23,0.13,0.42,0.21,0.57,0.26l0.47,0.13c0.29,0.07,0.45,0.09,0.51,0.04c0.04-0.05,0.07-0.22,0.07-0.52l0-0.3l0-0.29
					c0-0.43-0.01-0.72-0.03-0.89c-0.02-0.17-0.08-0.46-0.16-0.89c-0.09-0.42-0.21-0.67-0.38-0.77c-0.12-0.07-0.25,0.08-0.37,0.45
					c-0.12,0.38-0.22,0.73-0.29,1.03C780.12,204.9,780.07,205.15,780.02,205.35"/>
			</g>
			<g>
				<path class="st21" d="M788.05,196.76c0.26,0.15,0.48,0.31,0.68,0.46c0.2,0.17,0.41,0.36,0.63,0.59
					c0.22,0.23,0.41,0.43,0.55,0.61s0.28,0.36,0.41,0.56c0.13,0.2,0.24,0.36,0.29,0.48c0.06,0.12,0.11,0.23,0.15,0.32l-0.2,4.19
					l-0.2,5.23l0.05,3.87l-0.01,3.1l0.11,2.41l0,0.8l0,0.48l0,0.23c0,0.25-0.03,0.43-0.07,0.52c-0.05,0.09-0.15,0.11-0.3,0.05
					l-0.74-0.43c-0.91-0.52-1.56-1.03-1.96-1.52c-0.4-0.49-0.66-1.08-0.78-1.77c-0.12-0.69-0.18-1.76-0.18-3.21l0.01-3.27
					l-0.07-4.04l-0.03-2.73l0.04-1.7l0-1.01l0-0.8c0-0.55,0.01-1.05,0.02-1.48c0.01-0.43,0.05-0.85,0.12-1.26
					c0.06-0.42,0.21-0.7,0.44-0.84C787.26,196.44,787.6,196.5,788.05,196.76z"/>
			</g>
		</g>
	</g>
	<path class="st22" d="M891.37,319.15l-2.48-1.43c-1.43-0.82-1.43-2.16,0-2.98h0c0.4-0.23,0.87-0.39,1.36-0.49l-11.02-6.36
		c-0.18,0.29-0.45,0.56-0.85,0.79c-1.43,0.82-3.74,0.82-5.17,0l-3.47-2c-1.43-0.82-1.43-2.16,0-2.98h0c0.4-0.23,0.87-0.39,1.36-0.49
		l-7.2-4.16c-0.18,0.29-0.45,0.56-0.85,0.79c-1.43,0.82-3.74,0.82-5.16,0l-4.1-2.37c-1.43-0.82-3.74-0.82-5.16,0s-1.43,2.16,0,2.98
		l4.1,2.37c1.43,0.82,1.43,2.16,0,2.98s-3.74,0.82-5.17,0l-12.56-7.25c-1.43-0.82-3.74-0.82-5.16,0h0c-1.43,0.82-1.43,2.16,0,2.98
		l40.56,23.42c1.43,0.82,3.74,0.82,5.17,0s1.43-2.16,0-2.98l-4.3-2.49c-1.43-0.82-1.43-2.16,0-2.98h0c1.43-0.82,3.74-0.82,5.16,0
		l9.77,5.64c1.43,0.82,3.74,0.82,5.16,0h0C892.79,321.31,892.79,319.98,891.37,319.15z"/>
	<path class="st22" d="M622,400.73l-37.13-21.09l-35.28,20.5l20.01,11.2c1.93,1.11,5.05,1.13,7.01,0.04c2.02-1.12,2.03-3,0.03-4.15
		l-6.81-3.93c-1.68-0.97-0.99-3.54,0.95-3.54l0,0c1.95-1.13,5.12-1.13,7.08,0l13.4,7.73c1.95,1.13,5.12,1.13,7.08,0h0
		c1.94,0,2.63-2.57,0.95-3.54l-5.3-3.06c-1.68-0.97-0.99-3.54,0.95-3.54l0,0c1.95-1.13,5.12-1.13,7.08,0l12.91,7.45
		c1.95,1.13,5.12,1.13,7.08,0h0C623.95,403.69,623.95,401.86,622,400.73z M579.15,389.62c-2.04,0.6-4.25,0.26-6.1-0.8l-4.81-2.78
		c-2.18-1.26-1.49-3.83,0.45-3.83h0c1.95-1.13,5.12-1.13,7.08,0l4.76,2.75C582.87,386.31,582.41,388.67,579.15,389.62z
		 M624.84,406.38L624.84,406.38c-1.95,1.13-1.95,2.96,0,4.09l3.19,1.84c1.95,1.13,5.12,1.13,7.08,0l0,0c1.95-1.13,1.95-2.96,0-4.09
		l-3.19-1.84C629.96,405.25,626.79,405.25,624.84,406.38z"/>
	<path class="st22" d="M689.28,666.95l-38.15-22.03l-26.9,15.63l25.1,14.49c1.49,0.86,3.91,0.86,5.4,0c1.49-0.86,1.49-2.26,0-3.12
		l-4.5-2.6c-1.49-0.86-1.49-2.26,0-3.12h0c1.49-0.86,3.91-0.86,5.4,0l10.21,5.9c1.49,0.86,3.91,0.86,5.4,0h0
		c1.49-0.86,1.49-2.26,0-3.12l-2.59-1.5c-1.49-0.86-1.49-2.26,0-3.12s3.91-0.86,5.4,0l9.84,5.68c1.49,0.86,3.91,0.86,5.4,0h0
		C690.77,669.21,690.77,667.81,689.28,666.95z M657.66,658.04c-1.49,0.86-3.91,0.86-5.4,0l-3.63-2.09c-1.49-0.86-1.49-2.26,0-3.12h0
		c1.49-0.86,3.91-0.86,5.4,0l3.63,2.09C659.15,655.79,659.15,657.18,657.66,658.04z"/>
	<g>
		<g>
			
				<ellipse transform="matrix(0.9875 -0.1574 0.1574 0.9875 -44.4384 50.3595)" class="st41" cx="295.77" cy="305.79" rx="23.93" ry="23.93"/>
			<path class="st42" d="M318.86,299.46c-1.16,12.75-11.88,22.73-24.93,22.73c-9.35,0-17.5-5.13-21.8-12.72
				c1.77,11.47,11.68,20.25,23.65,20.25c13.22,0,23.93-10.71,23.93-23.93C319.71,303.6,319.41,301.47,318.86,299.46z"/>
		</g>
		<g>
			<circle class="st41" cx="260.99" cy="324.05" r="43.42"/>
			<path class="st42" d="M302.87,312.57c-2.11,23.13-21.56,41.24-45.23,41.24c-16.97,0-31.76-9.3-39.56-23.09
				c3.21,20.81,21.2,36.74,42.91,36.74c23.98,0,43.42-19.44,43.42-43.42C304.41,320.07,303.87,316.23,302.87,312.57z"/>
		</g>
		<g>
			<circle class="st41" cx="220.55" cy="356.51" r="34.01"/>
			<path class="st42" d="M253.35,347.53c-1.66,18.11-16.88,32.3-35.43,32.3c-13.29,0-24.87-7.29-30.98-18.08
				c2.52,16.3,16.6,28.78,33.61,28.78c18.78,0,34.01-15.23,34.01-34.01C254.56,353.4,254.13,350.39,253.35,347.53z"/>
		</g>
	</g>
	<g>
		<g>
			<circle class="st41" cx="566.26" cy="201.8" r="33.32"/>
			<path class="st42" d="M598.4,193c-1.62,17.75-16.54,31.65-34.71,31.65c-13.02,0-24.37-7.14-30.36-17.72
				c2.47,15.97,16.27,28.2,32.93,28.2c18.4,0,33.32-14.92,33.32-33.32C599.58,198.75,599.17,195.8,598.4,193z"/>
		</g>
		<g>
			
				<ellipse transform="matrix(0.9871 -0.1602 0.1602 0.9871 -29.4055 88.6606)" class="st41" cx="535.22" cy="226.72" rx="19.79" ry="19.79"/>
			<path class="st42" d="M554.31,221.49c-0.96,10.54-9.82,18.8-20.62,18.8c-7.73,0-14.47-4.24-18.03-10.52
				c1.46,9.48,9.66,16.75,19.56,16.75c10.93,0,19.79-8.86,19.79-19.79C555.01,224.91,554.77,223.16,554.31,221.49z"/>
		</g>
		<g>
			<circle class="st41" cx="598.09" cy="219.82" r="18.37"/>
			<path class="st42" d="M615.81,214.97c-0.89,9.78-9.12,17.44-19.13,17.44c-7.18,0-13.43-3.94-16.73-9.76
				c1.36,8.8,8.97,15.54,18.15,15.54c10.14,0,18.37-8.22,18.37-18.37C616.46,218.14,616.23,216.51,615.81,214.97z"/>
		</g>
	</g>
	<g>
		<g>
			<circle class="st41" cx="1098.94" cy="413.14" r="35.09"/>
			<path class="st42" d="M1132.79,403.86c-1.71,18.69-17.42,33.33-36.56,33.33c-13.71,0-25.67-7.52-31.97-18.66
				c2.6,16.82,17.13,29.7,34.68,29.7c19.38,0,35.09-15.71,35.09-35.1C1134.03,409.93,1133.6,406.82,1132.79,403.86z"/>
		</g>
		<g>
			<circle class="st41" cx="1133.74" cy="427.38" r="50.4"/>
			<path class="st42" d="M1182.35,414.06c-2.45,26.84-25.02,47.87-52.51,47.87c-19.69,0-36.86-10.8-45.92-26.8
				c3.73,24.16,24.61,42.65,49.81,42.65c27.84,0,50.4-22.57,50.4-50.4C1184.14,422.77,1183.51,418.31,1182.35,414.06z"/>
		</g>
		<g>
			<circle class="st41" cx="1181.89" cy="454.64" r="35.09"/>
			<path class="st42" d="M1215.74,445.36c-1.71,18.69-17.42,33.33-36.56,33.33c-13.71,0-25.67-7.52-31.97-18.66
				c2.6,16.82,17.14,29.7,34.68,29.7c19.38,0,35.09-15.71,35.09-35.1C1216.99,451.43,1216.55,448.32,1215.74,445.36z"/>
		</g>
	</g>
	<g id="XMLID_69_">
		<path id="XMLID_180_" class="st43" d="M609.46,401.87v9h-0.1c-0.49,3.63-3.11,7.17-7.88,9.95c-6.28,3.65-14.9,5.15-23.11,4.52
			c-5.75-0.45-11.3-1.96-15.74-4.52c-4.81-2.78-7.47-6.32-7.99-9.95h-0.06v-0.61c-0.04-0.49-0.04-0.97,0-1.46v-6.93h3.35
			c1.22-1.27,2.72-2.46,4.57-3.54c4.45-2.58,10.06-4.09,15.87-4.52c8.15-0.62,16.7,0.89,22.98,4.52c1.86,1.08,3.39,2.28,4.6,3.54
			H609.46z"/>
		<path id="XMLID_79_" class="st44" d="M609.46,401.87v9h-0.1c-0.49,3.63-3.11,7.17-7.88,9.95c-6.28,3.65-14.9,5.15-23.11,4.52
			v-31.53c8.15-0.62,16.7,0.89,22.98,4.52c1.86,1.08,3.39,2.28,4.6,3.54H609.46z"/>
		<g id="XMLID_55_">
			<path id="XMLID_57_" class="st45" d="M601.36,389.67c-10.76-6.21-28.15-6.21-38.84,0c-10.69,6.21-10.63,16.28,0.13,22.5
				c10.76,6.21,28.15,6.21,38.84,0C612.17,405.96,612.12,395.89,601.36,389.67"/>
		</g>
		<g id="XMLID_28_">
			<path id="XMLID_30_" class="st46" d="M561.03,364.9l-0.04,1.61C560.93,365.97,560.95,365.43,561.03,364.9z"/>
			<path id="XMLID_29_" class="st46" d="M603.01,366.57l-0.04-1.58C603.05,365.52,603.07,366.05,603.01,366.57z"/>
		</g>
		<g id="XMLID_26_">
			<path id="XMLID_27_" class="st46" d="M561.95,329.99l-0.03,1.41C561.87,330.93,561.89,330.46,561.95,329.99z"/>
			<path id="XMLID_197_" class="st46" d="M602.09,331.47l-0.03-1.4C602.12,330.53,602.13,331.01,602.09,331.47z"/>
		</g>
		<path id="XMLID_25_" class="st46" d="M605.79,257.85c-0.39,1.04-0.99,2.05-1.8,3.02c-1.15,1.39-2.71,2.69-4.69,3.84
			c-9.49,5.52-24.94,5.52-34.49,0.01c-1.99-1.16-3.57-2.45-4.74-3.84c-0.84-1-1.47-2.05-1.87-3.12c0.39-1.04,0.99-2.06,1.8-3.03
			c1.15-1.39,2.71-2.69,4.69-3.84c9.49-5.52,24.94-5.52,34.49,0c1.99,1.15,3.57,2.45,4.73,3.84
			C604.77,255.73,605.39,256.78,605.79,257.85z"/>
		<path id="XMLID_24_" class="st46" d="M597.6,409.93c-2.01,1.17-4.31,2.06-6.77,2.67c-5.53,1.4-11.85,1.41-17.41,0.02
			c-0.09-0.01-0.17-0.04-0.26-0.06c-2.41-0.61-4.68-1.49-6.66-2.63c-4.86-2.81-7-6.6-6.39-10.27l0.88-33.15
			c0.26,2.91,2.31,5.8,6.18,8.03c2.06,1.18,4.42,2.07,6.95,2.68c0.63,0.15,1.29,0.28,1.95,0.39c0.65,0.11,1.3,0.19,1.96,0.28
			c0.01,0,0.01,0.01,0.02,0c5.97,0.67,12.34-0.17,17.28-2.51c0.55-0.27,1.08-0.55,1.6-0.84c3.81-2.22,5.83-5.07,6.08-7.97
			l0.88,33.17v0.01C604.49,403.39,602.39,407.14,597.6,409.93z"/>
		<path id="XMLID_23_" class="st47" d="M597.6,409.93c-2.01,1.17-4.31,2.06-6.77,2.67c-5.53,1.4-11.85,1.41-17.41,0.02l0.69-35.41
			c0.63,0.15,1.29,0.28,1.95,0.39c0.65,0.12,1.3,0.21,1.96,0.28c0.01,0,0.01,0.01,0.02,0c5.97,0.67,12.34-0.17,17.28-2.51
			c0.55-0.27,1.08-0.54,1.6-0.84c3.81-2.22,5.83-5.07,6.08-7.97l0.88,33.17v0.01C604.49,403.39,602.39,407.14,597.6,409.93z"/>
		<path id="XMLID_173_" class="st48" d="M603.01,366.57c-0.24,2.9-2.27,5.75-6.08,7.97c-6.15,3.58-15.2,4.47-22.81,2.68
			c-2.53-0.61-4.9-1.5-6.95-2.68c-3.86-2.23-5.92-5.12-6.18-8.03l0.04-1.61l0.89-33.48c0.23,2.81,2.2,5.57,5.92,7.72
			c2.06,1.19,4.45,2.07,6.99,2.63c0.29,0.07,0.58,0.12,0.88,0.18c0.6,0.11,1.19,0.21,1.79,0.29c0.3,0.04,0.6,0.07,0.9,0.11
			c6.3,0.67,13.03-0.4,17.87-3.22c3.67-2.13,5.59-4.86,5.82-7.65l0.89,33.5L603.01,366.57z"/>
		<path id="XMLID_176_" class="st49" d="M603.01,366.57c-0.24,2.9-2.27,5.75-6.08,7.97c-6.15,3.58-15.2,4.47-22.81,2.68l0.71-35.44
			c0.29,0.06,0.58,0.12,0.88,0.18c0.6,0.11,1.19,0.21,1.79,0.29c0.3,0.04,0.6,0.07,0.9,0.11c6.3,0.67,13.03-0.4,17.87-3.22
			c3.67-2.13,5.59-4.86,5.82-7.65l0.89,33.5L603.01,366.57z"/>
		<path id="XMLID_172_" class="st46" d="M602.08,331.47v0.02c-0.23,2.79-2.16,5.52-5.82,7.65c-5.77,3.36-14.24,4.24-21.44,2.63
			c-2.55-0.56-4.93-1.44-6.99-2.63c-3.72-2.16-5.69-4.91-5.92-7.72v-0.02l0.04-1.4l0.89-33.9c0.1,2.78,1.99,5.53,5.65,7.65
			c2.06,1.19,4.47,2.05,7.03,2.58c0.49,0.11,0.99,0.19,1.49,0.27c0.06,0.01,0.12,0.02,0.17,0.04c0.52,0.09,1.05,0.15,1.58,0.19
			c1.1,0.11,2.19,0.17,3.3,0.17c4.91,0,9.8-1.08,13.53-3.25c3.63-2.11,5.48-4.84,5.57-7.6l0.9,33.92L602.08,331.47z"/>
		<path id="XMLID_175_" class="st47" d="M602.08,331.47v0.02c-0.23,2.79-2.16,5.52-5.82,7.65c-5.77,3.36-14.24,4.24-21.44,2.63
			l0.69-35.44c0.49,0.1,0.99,0.19,1.49,0.27c0.06,0.01,0.12,0.02,0.17,0.04c0.52,0.07,1.05,0.15,1.58,0.19
			c1.1,0.11,2.19,0.17,3.3,0.17c4.91,0,9.8-1.08,13.53-3.25c3.63-2.11,5.48-4.84,5.57-7.6l0.9,33.92L602.08,331.47z"/>
		<path id="XMLID_171_" class="st48" d="M601.16,296.15c-0.09,2.76-1.94,5.49-5.57,7.6c-5.41,3.14-13.29,4.01-20.07,2.58
			c-2.56-0.54-4.97-1.39-7.03-2.58c-3.67-2.12-5.55-4.87-5.65-7.65l0.02-0.85l0.91-34.36h36.45l0.04,1.45l0.86,32.98L601.16,296.15z
			"/>
		<path id="XMLID_22_" class="st49" d="M601.16,296.15c-0.09,2.76-1.94,5.49-5.57,7.6c-5.41,3.14-13.29,4.01-20.07,2.58l0.76-37.89
			c0,0,12.36-3.2,23.99-6.1l0.86,32.98L601.16,296.15z"/>
		<path id="XMLID_21_" class="st50" d="M606.38,254.73v0.05c0,1.03-0.2,2.07-0.59,3.07c-0.39,1.04-0.99,2.05-1.8,3.02h-43.91
			c-0.84-1-1.47-2.05-1.87-3.12c-0.39-1-0.58-2.02-0.59-3.03H606.38z"/>
		<g id="XMLID_78_">
			<path id="XMLID_198_" class="st46" d="M606.38,254.73v0.05c0,1.03-0.2,2.07-0.59,3.07c-0.39,1.04-0.99,2.05-1.8,3.02
				c-1.15,1.39-2.71,2.69-4.69,3.84c-9.49,5.52-24.94,5.52-34.49,0.01c-1.99-1.16-3.57-2.45-4.74-3.84c-0.84-1-1.47-2.05-1.87-3.12
				c-0.39-1-0.58-2.02-0.59-3.03c-0.02-3.62,2.34-7.23,7.08-9.98c9.49-5.52,24.94-5.52,34.49,0
				C603.96,247.5,606.36,251.12,606.38,254.73z"/>
		</g>
		<g id="XMLID_19_">
			<path id="XMLID_20_" class="st51" d="M600.23,227.68v27.05c0,1.77-0.74,3.54-2.27,5.12c-0.79,0.85-1.8,1.63-3.03,2.35
				c-0.23,0.13-0.48,0.27-0.72,0.38c-2.87,1.51-6.35,2.39-9.95,2.63c-1.51,0.11-3.03,0.11-4.53-0.01c-3.59-0.26-7.06-1.14-9.94-2.66
				c-0.22-0.1-0.44-0.22-0.65-0.34c-1.3-0.77-2.39-1.6-3.2-2.5c-1.44-1.56-2.17-3.26-2.17-4.97v-27.05H600.23z"/>
		</g>
		<g id="XMLID_16_">
			<path id="XMLID_17_" class="st52" d="M594.21,227.68v34.9c-2.87,1.51-6.35,2.39-9.95,2.63c-1.51,0.11-3.03,0.11-4.53-0.01
				c-3.59-0.26-7.06-1.14-9.94-2.66v-34.86H594.21z"/>
		</g>
		<path id="XMLID_15_" class="st53" d="M606.38,254.78v6.1c0.01,3.61-2.34,7.22-7.08,9.98c-5.35,3.11-12.57,4.46-19.57,4.08
			c-5.44-0.3-10.74-1.66-14.92-4.07c-4.77-2.76-7.17-6.38-7.2-9.99v-6.15c0.01,1.01,0.19,2.03,0.6,3.03
			c0.4,1.06,1.02,2.11,1.86,3.12c1.17,1.39,2.75,2.68,4.74,3.84c4.18,2.41,9.48,3.76,14.92,4.07c7,0.38,14.23-0.97,19.57-4.08
			c1.97-1.14,3.53-2.45,4.68-3.82c0.82-0.99,1.41-1.99,1.81-3.03C606.19,256.84,606.38,255.82,606.38,254.78z"/>
		<path id="XMLID_162_" class="st54" d="M606.38,254.78v6.1c0.01,3.61-2.34,7.22-7.08,9.98c-5.35,3.11-12.57,4.46-19.57,4.08v-6.15
			c7,0.38,14.23-0.97,19.57-4.08c1.97-1.14,3.53-2.45,4.68-3.82c0.82-0.99,1.41-1.99,1.81-3.03
			C606.19,256.84,606.38,255.82,606.38,254.78z"/>
		<path id="XMLID_177_" class="st53" d="M584.27,237.11v28.09c-1.51,0.11-3.03,0.11-4.53-0.01v-28.08H584.27z"/>
		<path id="XMLID_179_" class="st53" d="M565.95,230.7v29c-1.44-1.55-2.16-3.25-2.17-4.97V230.7H565.95z"/>
		<path id="XMLID_178_" class="st53" d="M600.23,230.7v24.03h-0.01c0.01,1.77-0.74,3.54-2.25,5.12V230.7H600.23z"/>
		<path id="XMLID_156_" class="st48" d="M605.14,223.27c-1.16-2.04-3.14-3.95-5.95-5.57c-9.55-5.52-24.99-5.52-34.48,0
			c-2.79,1.62-4.74,3.54-5.89,5.57h-1.2v4.41h0c0.02,3.61,2.42,7.23,7.2,9.99c9.55,5.51,24.99,5.51,34.48,0
			c4.75-2.76,7.11-6.37,7.09-9.99l0,0v-4.41H605.14z"/>
		<path id="XMLID_170_" class="st55" d="M599.29,233.02c-7.8,4.53-19.61,5.35-28.88,2.42c-2.01-0.63-3.9-1.44-5.6-2.42
			c-5.59-3.23-7.93-7.65-6.98-11.85c0.63-2.89,2.83-5.68,6.55-7.93l13.06-10.82h9.1l15.01,12.19c0.16,0.13,0.33,0.27,0.49,0.4
			l0.11,0.1C608.61,220.6,607.67,228.14,599.29,233.02z"/>
		<g id="XMLID_174_">
			<path id="XMLID_14_" class="st48" d="M585.48,205.5c-1.22,0.71-2.94,0.96-4.52,0.77c-0.89-0.12-1.73-0.38-2.42-0.77
				c-0.76-0.44-1.22-0.99-1.39-1.56c-0.24-0.86,0.21-1.79,1.36-2.46c1.91-1.12,5.02-1.12,6.95,0
				C587.39,202.59,587.39,204.39,585.48,205.5z"/>
		</g>
		<path id="XMLID_157_" class="st56" d="M590.83,398.74v13.86c-5.61,1.43-12.05,1.41-17.66-0.04v-13.82c0-4.88,3.96-8.83,8.83-8.83
			C586.88,389.91,590.83,393.85,590.83,398.74z"/>
		<g id="XMLID_5_">
			<path id="XMLID_13_" class="st57" d="M582.06,353.28L582.06,353.28c-2.53,0-4.57,2.05-4.57,4.57l0.14,8.27
				c3.06,1.37,6.11,1.39,9.15,0l-0.14-8.27C586.64,355.33,584.59,353.28,582.06,353.28z"/>
		</g>
		<g id="XMLID_6_">
			<path id="XMLID_4_" class="st56" d="M582.06,317.59L582.06,317.59c-2.53,0-4.57,2.05-4.57,4.57l0.14,8.27
				c3.06,1.37,6.11,1.39,9.15,0l-0.14-8.27C586.64,319.64,584.59,317.59,582.06,317.59z"/>
		</g>
		<g id="XMLID_2_">
			<path id="XMLID_3_" class="st57" d="M582.06,281.91L582.06,281.91c-2.53,0-4.57,2.05-4.57,4.57l0.14,8.27
				c3.06,1.37,6.11,1.39,9.15,0l-0.14-8.27C586.64,283.95,584.59,281.91,582.06,281.91z"/>
		</g>
		<path id="XMLID_77_" class="st58" d="M580.96,206.27l-10.55,29.17c-2.01-0.63-3.9-1.44-5.6-2.42c-5.59-3.23-7.93-7.65-6.98-11.85
			l19.32-17.22c0.17,0.57,0.63,1.12,1.39,1.56C579.23,205.89,580.07,206.15,580.96,206.27z"/>
	</g>
</g>
</svg>
